<?xml version="1.0" encoding="UTF-8"?>
<!-- Generated by Pixelmator Pro 3.5.3 -->
<svg width="20" height="20" viewBox="0 0 20 20" xmlns="http://www.w3.org/2000/svg">
    <linearGradient id="linearGradient1" x1="3.957191" y1="14.642049" x2="12.953586" y2="6.959405" gradientUnits="userSpaceOnUse">
        <stop offset="0" stop-color="#3478f6" stop-opacity="1"/>
        <stop offset="1" stop-color="#53b6f9" stop-opacity="1"/>
    </linearGradient>
    <filter id="filter1" x="0" y="0" width="20" height="20" filterUnits="userSpaceOnUse" primitiveUnits="userSpaceOnUse" color-interpolation-filters="sRGB">
        <feGaussianBlur stdDeviation="21"/>
        <feOffset dx="37.445532" dy="33.13355" result="offsetblur"/>
        <feFlood flood-color="#000000" flood-opacity="1"/>
        <feComposite in2="offsetblur" operator="in"/>
        <feMerge>
            <feMergeNode/>
            <feMergeNode in="SourceGraphic"/>
        </feMerge>
    </filter>
    <path id="Ellipse" fill="url(#linearGradient1)" fill-rule="evenodd" stroke="#ffffff" stroke-width="2" filter="url(#filter1)" d="M 11.359375 1.09375 L 12.25 1.265625 L 13.09375 1.53125 L 13.90625 1.875 L 14.65625 2.28125 L 15.375 2.78125 L 16.046875 3.3125 L 16.671875 3.9375 L 17.203125 4.609375 L 17.703125 5.328125 L 18.109375 6.078125 L 18.453125 6.890625 L 18.71875 7.734375 L 18.890625 8.625 L 18.984375 9.515625 L 19 10 L 18.984375 10.46875 L 18.890625 11.359375 L 18.71875 12.25 L 18.453125 13.09375 L 18.109375 13.90625 L 17.703125 14.65625 L 17.203125 15.375 L 16.671875 16.046875 L 16.046875 16.671875 L 15.375 17.203125 L 14.65625 17.703125 L 13.90625 18.109375 L 13.09375 18.453125 L 12.25 18.71875 L 11.359375 18.890625 L 10.46875 18.984375 L 10 19 L 9.515625 18.984375 L 8.625 18.890625 L 7.734375 18.71875 L 6.890625 18.453125 L 6.078125 18.109375 L 5.328125 17.703125 L 4.609375 17.203125 L 3.9375 16.671875 L 3.3125 16.046875 L 2.78125 15.375 L 2.28125 14.65625 L 1.875 13.90625 L 1.53125 13.09375 L 1.265625 12.25 L 1.09375 11.359375 L 1 10.453125 L 1 9.53125 L 1.09375 8.625 L 1.265625 7.734375 L 1.53125 6.890625 L 1.875 6.078125 L 2.28125 5.328125 L 2.78125 4.609375 L 3.3125 3.9375 L 3.9375 3.3125 L 4.609375 2.78125 L 5.328125 2.28125 L 6.078125 1.875 L 6.890625 1.53125 L 7.734375 1.265625 L 8.625 1.09375 L 9.53125 1 L 10.453125 1 Z"/>
    <g id="g1"/>
</svg>
